<?xml version="1.0" encoding="iso-8859-1"?>
<!-- Generator: Adobe Illustrator 19.0.0, SVG Export Plug-In . SVG Version: 6.00 Build 0)  -->
<svg version="1.1" id="Capa_1" xmlns="http://www.w3.org/2000/svg" xmlns:xlink="http://www.w3.org/1999/xlink" x="0px" y="0px"
	 viewBox="0 0 512 512" style="enable-background:new 0 0 512 512;" xml:space="preserve">
<g>
	<g>
		<path d="M509.62,471.893l-19.383-45.297c-0.005-0.013-0.012-0.027-0.017-0.04l-35.245-82.365
			c-0.005-0.013-0.011-0.026-0.017-0.039l-0.044-0.102c-0.026-0.06-0.058-0.117-0.085-0.176c-0.067-0.146-0.134-0.291-0.21-0.433
			c-0.042-0.078-0.091-0.153-0.136-0.23c-0.076-0.13-0.151-0.26-0.235-0.386c-0.065-0.097-0.138-0.189-0.208-0.283
			c-0.074-0.099-0.143-0.201-0.223-0.298c-0.156-0.189-0.32-0.372-0.494-0.546L198.268,86.644c-0.002-0.002-0.003-0.003-0.005-0.005
			c-0.002-0.002-0.003-0.003-0.005-0.005l-35.923-35.923c-2.929-2.929-7.678-2.929-10.607,0c-2.929,2.929-2.929,7.678,0,10.607
			l7.435,7.434l-90.41,90.411l-50.302-50.302c-2.225-2.225-3.45-5.183-3.45-8.33c0-3.146,1.225-6.104,3.45-8.33L92.203,18.45
			c4.593-4.593,12.066-4.593,16.659,0l20.522,20.522c2.929,2.929,7.678,2.929,10.606,0c2.929-2.929,2.929-7.678,0-10.606
			L119.468,7.844C114.41,2.786,107.685,0,100.532,0c-7.153,0-13.878,2.786-18.936,7.844L7.845,81.595
			c-5.058,5.058-7.844,11.783-7.844,18.936s2.786,13.878,7.844,18.936L154.27,265.893c1.464,1.464,3.384,2.197,5.303,2.197
			s3.839-0.732,5.303-2.197c2.929-2.929,2.929-7.678,0-10.607l-39.137-39.137l16.006-16.006l221.263,221.263l-16.006,16.006
			l-157.7-157.701c-2.929-2.929-7.678-2.929-10.607,0c-2.929,2.929-2.929,7.678,0,10.607L341.7,453.322
			c0.174,0.174,0.357,0.338,0.547,0.494c0.094,0.077,0.193,0.144,0.289,0.216c0.097,0.072,0.192,0.148,0.293,0.215
			c0.122,0.082,0.249,0.155,0.375,0.229c0.081,0.047,0.159,0.098,0.241,0.143c0.139,0.075,0.281,0.14,0.423,0.205
			c0.062,0.029,0.121,0.063,0.185,0.09l0.107,0.046c0.01,0.004,0.021,0.009,0.031,0.013l82.382,35.252
			c0.006,0.003,0.012,0.005,0.018,0.008l45.307,19.387c1.438,0.614,2.917,1.117,4.395,1.494c2.313,0.589,4.668,0.886,7.01,0.886
			c0.569,0,1.138-0.018,1.705-0.052c0.117-0.007,0.233-0.017,0.355-0.028c2.458-0.182,4.906-0.698,7.272-1.533
			c0.5-0.176,0.993-0.367,1.479-0.569c0.67-0.279,1.342-0.59,1.995-0.922c7.556-3.85,13.214-11.018,15.139-19.179
			c0.212-0.903,0.369-1.721,0.48-2.503C512.45,482.1,511.721,476.802,509.62,471.893z M79.36,169.769l90.41-90.411l12.584,12.584
			l-90.41,90.41L79.36,169.769z M115.134,205.543l-12.584-12.584l90.41-90.41l12.584,12.584L115.134,205.543z M152.352,189.537
			l37.187-37.186l152.159,152.16c1.464,1.465,3.384,2.197,5.303,2.197s3.839-0.732,5.303-2.197c2.929-2.929,2.929-7.678,0-10.606
			l-152.159-152.16l16.005-16.005l221.263,221.263l-16.005,16.005l-47.063-47.062c-2.929-2.929-7.678-2.929-10.607,0
			c-2.929,2.929-2.929,7.678,0,10.607l47.063,47.062L373.615,410.8L152.352,189.537z M360.144,445.484l85.341-85.341l28.905,67.548
			l-46.698,46.698L360.144,445.484z M496.875,485.112c-0.046,0.328-0.121,0.71-0.228,1.164c-0.924,3.92-3.671,7.379-7.349,9.253
			c-0.311,0.159-0.629,0.306-0.954,0.441c-0.229,0.095-0.46,0.185-0.698,0.269c-1.125,0.397-2.275,0.64-3.38,0.719
			c-0.05,0.003-0.151,0.012-0.235,0.019c-1.341,0.075-2.697-0.06-4.035-0.4c-0.732-0.187-1.473-0.44-2.2-0.75l-35.248-15.083
			l38.199-38.199l15.083,35.248C496.867,480.218,497.218,482.681,496.875,485.112z"/>
	</g>
</g>
<g>
</g>
<g>
</g>
<g>
</g>
<g>
</g>
<g>
</g>
<g>
</g>
<g>
</g>
<g>
</g>
<g>
</g>
<g>
</g>
<g>
</g>
<g>
</g>
<g>
</g>
<g>
</g>
<g>
</g>
</svg>
